{
  "accessors": [
    {
      "bufferView": 2,
      "componentType": 5126,
      "count": 38259,
      "max": [
        6.067312717437744,
        4.480124473571777,
        -5.399567604064941
      ],
      "min": [
        -5.939462184906006,
        -9.012020111083984,
        -14.5546293258667
      ],
      "type": "VEC3"
    },
    {
      "bufferView": 2,
      "byteOffset": 459108,
      "componentType": 5126,
      "count": 38259,
      "max": [
        0.9998242855072021,
        0.9999597072601318,
        0.9999951124191284
      ],
      "min": [
        -0.9999895691871643,
        -0.9999504089355469,
        -0.9994968771934509
      ],
      "type": "VEC3"
    },
    {
      "bufferView": 1,
      "componentType": 5126,
      "count": 38259,
      "max": [
        0.9999908804893494,
        0.9969683885574341
      ],
      "min": [
        4.706159234046936e-05,
        1.374911516904831e-05
      ],
      "type": "VEC2"
    },
    {
      "bufferView": 0,
      "componentType": 5125,
      "count": 205035,
      "type": "SCALAR"
    },
    {
      "bufferView": 2,
      "byteOffset": 918216,
      "componentType": 5126,
      "count": 37407,
      "max": [
        6.157694339752197,
        4.481045722961426,
        -5.873225212097168
      ],
      "min": [
        -6.663717269897461,
        -8.864069938659668,
        -14.468817710876465
      ],
      "type": "VEC3"
    },
    {
      "bufferView": 2,
      "byteOffset": 1367100,
      "componentType": 5126,
      "count": 37407,
      "max": [
        0.9999765753746033,
        0.999979555606842,
        0.9999960064888
      ],
      "min": [
        -0.9999654293060303,
        -0.9992045760154724,
        -0.9996707439422607
      ],
      "type": "VEC3"
    },
    {
      "bufferView": 1,
      "byteOffset": 306072,
      "componentType": 5126,
      "count": 37407,
      "max": [
        0.9999562501907349,
        0.9984782338142395
      ],
      "min": [
        2.5047488634299953e-06,
        6.0249119997024536e-05
      ],
      "type": "VEC2"
    },
    {
      "bufferView": 0,
      "byteOffset": 820140,
      "componentType": 5125,
      "count": 201699,
      "type": "SCALAR"
    }
  ],
  "asset": {
    "extras": {
      "author": "FUD-UJEP (https://sketchfab.com/FUD-UJEP)",
      "license": "CC-BY-4.0 (http://creativecommons.org/licenses/by/4.0/)",
      "source": "https://sketchfab.com/3d-models/sagrada-familia-front-facade-385d0c915b0b42e6829acae811f06fbe",
      "title": "Sagrada Família front facade"
    },
    "generator": "Sketchfab-12.68.0",
    "version": "2.0"
  },
  "bufferViews": [
    {
      "buffer": 0,
      "byteLength": 1626936,
      "name": "floatBufferViews",
      "target": 34963
    },
    {
      "buffer": 0,
      "byteLength": 605328,
      "byteOffset": 1626936,
      "byteStride": 8,
      "name": "floatBufferViews",
      "target": 34962
    },
    {
      "buffer": 0,
      "byteLength": 1815984,
      "byteOffset": 2232264,
      "byteStride": 12,
      "name": "floatBufferViews",
      "target": 34962
    }
  ],
  "buffers": [
    {
      "byteLength": 4048248,
      "uri": "scene.bin"
    }
  ],
  "extensionsUsed": [
    "KHR_materials_unlit"
  ],
  "images": [
    {
      "uri": "textures/material0_baseColor.jpeg"
    },
    {
      "uri": "textures/material1_baseColor.jpeg"
    }
  ],
  "materials": [
    {
      "doubleSided": true,
      "extensions": {
        "KHR_materials_unlit": {}
      },
      "name": "material0",
      "pbrMetallicRoughness": {
        "baseColorTexture": {
          "index": 0
        },
        "metallicFactor": 0.0
      }
    },
    {
      "doubleSided": true,
      "extensions": {
        "KHR_materials_unlit": {}
      },
      "name": "material1",
      "pbrMetallicRoughness": {
        "baseColorTexture": {
          "index": 1
        },
        "metallicFactor": 0.0
      }
    }
  ],
  "meshes": [
    {
      "name": "Model_material0_0",
      "primitives": [
        {
          "attributes": {
            "NORMAL": 1,
            "POSITION": 0,
            "TEXCOORD_0": 2
          },
          "indices": 3,
          "material": 0,
          "mode": 4
        }
      ]
    },
    {
      "name": "Model_material1_0",
      "primitives": [
        {
          "attributes": {
            "NORMAL": 5,
            "POSITION": 4,
            "TEXCOORD_0": 6
          },
          "indices": 7,
          "material": 1,
          "mode": 4
        }
      ]
    }
  ],
  "nodes": [
    {
      "children": [
        1
      ],
      "matrix": [
        2.495839468431882,
        0.08256548806218524,
        -0.5519062053869206,
        0.0,
        0.07442438826026354,
        -2.555972301386049,
        -0.04581171918930206,
        0.0,
        -0.5530628581277597,
        0.0286468792356126,
        -2.496784576928235,
        0.0,
        2.085559844970703,
        12.137667655944822,
        7.460824966430667,
        1.0
      ],
      "name": "Sketchfab_model"
    },
    {
      "children": [
        2
      ],
      "matrix": [
        1.0,
        0.0,
        0.0,
        0.0,
        0.0,
        -1.0,
        0.0,
        0.0,
        0.0,
        0.0,
        -1.0,
        0.0,
        0.0,
        0.0,
        0.0,
        1.0
      ],
      "name": "sagrada-famiglia.fbx"
    },
    {
      "children": [
        3
      ],
      "name": "RootNode"
    },
    {
      "children": [
        4,
        5
      ],
      "name": "Model"
    },
    {
      "mesh": 0,
      "name": "Model_material0_0"
    },
    {
      "mesh": 1,
      "name": "Model_material1_0"
    }
  ],
  "samplers": [
    {
      "magFilter": 9729,
      "minFilter": 9987,
      "wrapS": 10497,
      "wrapT": 10497
    }
  ],
  "scene": 0,
  "scenes": [
    {
      "name": "Sketchfab_Scene",
      "nodes": [
        0
      ]
    }
  ],
  "textures": [
    {
      "sampler": 0,
      "source": 0
    },
    {
      "sampler": 0,
      "source": 1
    }
  ]
}
